<svg id="add_documentation" data-name="add documentation" xmlns="http://www.w3.org/2000/svg" viewBox="0 0 14 15"><path d="M15.5,13H13v2.5a.47.47,0,0,1-.5.5h-1a.47.47,0,0,1-.5-.5V13H8.5a.47.47,0,0,1-.5-.5v-1a.47.47,0,0,1,.5-.5H11V8.5a.47.47,0,0,1,.5-.5h1a.47.47,0,0,1,.5.5V11h2.5a.47.47,0,0,1,.5.5v1A.47.47,0,0,1,15.5,13Z" transform="translate(-2 -1)"/><path d="M9,14H5V2h8V7h1V1.5a.5.5,0,0,0-.5-.5H2.5a.5.5,0,0,0-.5.5v13a.5.5,0,0,0,.5.5H9ZM4,14H3V2H4Z" transform="translate(-2 -1)"/><rect x="4" y="2" width="6" height="1"/></svg>