<svg id="linking" xmlns="http://www.w3.org/2000/svg" viewBox="0 0 12.52 12.4"><path d="M13.7,3.8,12.3,2.4a1.93,1.93,0,0,0-2.8,0L5.9,5.9a1.93,1.93,0,0,0,0,2.8L7.1,9.9,8,9.1,6.9,8a1,1,0,0,1,0-1.4l3.2-3.2a1,1,0,0,1,1.4,0l1.1,1.1a1,1,0,0,1,0,1.4L11.3,7.2a3.26,3.26,0,0,1,.4,1.4l2-2A2.13,2.13,0,0,0,13.7,3.8Z" transform="translate(-1.7 -1.8)"/><path d="M8.9,6.1,8,6.9,9.1,8a1,1,0,0,1,0,1.4L5.9,12.6a1,1,0,0,1-1.4,0L3.4,11.5a1,1,0,0,1,0-1.4L4.7,8.8a3.26,3.26,0,0,1-.4-1.4l-2,2a1.93,1.93,0,0,0,0,2.8l1.4,1.4a1.93,1.93,0,0,0,2.8,0L10,10.1a1.93,1.93,0,0,0,0-2.8Z" transform="translate(-1.7 -1.8)"/></svg>