<svg id="uprade_manual" data-name="uprade manual" xmlns="http://www.w3.org/2000/svg" viewBox="0 0 14 14"><path d="M8.2,7.71l-.39-.64a3,3,0,0,1,4.7,2.48h.62a.14.14,0,0,1,.11.22l-1,1.82a.13.13,0,0,1-.18.05L12,11.59,11,9.77a.14.14,0,0,1,.11-.22h.64A2.26,2.26,0,0,0,8.2,7.71Z" transform="translate(-1 -1)"/><path d="M9.51,11.81a2.2,2.2,0,0,0,1.28-.42l.39.65a3,3,0,0,1-4.7-2.49H5.87a.14.14,0,0,1-.11-.21l1-1.83a.14.14,0,0,1,.19,0l0,0L8,9.34a.14.14,0,0,1-.11.21h-.6a2.27,2.27,0,0,0,2.27,2.26Z" transform="translate(-1 -1)"/><path d="M14,4H12V1H1V12H4v3H15V4ZM4,4v7H2V2h9V4ZM14,14H5V5h9Z" transform="translate(-1 -1)"/></svg>