<svg id="backend_users" data-name="backend users" xmlns="http://www.w3.org/2000/svg" viewBox="0 0 14 12"><path d="M14.5,2H1.5a.47.47,0,0,0-.5.5v9a.47.47,0,0,0,.5.5H6v1H4v1h8V13H10V12h4.5a.47.47,0,0,0,.5-.5v-9A.47.47,0,0,0,14.5,2ZM14,11H2V3H14Z" transform="translate(-1 -2)"/><path d="M10,8.75c-.5-.19-.88-.37-1.25-.5a2.59,2.59,0,0,1-.13-.75,1.4,1.4,0,0,0,.44-.87V5.88A.87.87,0,0,0,8.12,5H7.88a.91.91,0,0,0-.94.88v.68a1.4,1.4,0,0,0,.44.94,2.59,2.59,0,0,1-.13.75c-.37.13-.75.31-1.25.5-.31.19-.5.25-.5,1.25h5C10.5,9,10.31,8.88,10,8.75Z" transform="translate(-1 -2)"/></svg>