<svg id="migrate_content" data-name="migrate content" xmlns="http://www.w3.org/2000/svg" viewBox="0 0 14 14"><path d="M7,9v.7l3-3L9.3,6l-3,3Z" transform="translate(-1 -1)"/><path d="M10.6,9.6,6.4,5.4A.27.27,0,0,1,6.6,5h4.1a.27.27,0,0,1,.3.3V9.4A.27.27,0,0,1,10.6,9.6Z" transform="translate(-1 -1)"/><path d="M4.76,13.44l-.21,0c-.63,0-1.56-2.24-1.56-3a.49.49,0,0,1,.16-.44,3.6,3.6,0,0,0-2,.74.7.7,0,0,0-.11.42C1.05,12.37,2.27,15,3.13,15c.4,0,1.07-.66,1.63-1.56" transform="translate(-1 -1)"/><path d="M4.35,10c.8,0,1.6.13,1.6.59,0,.92-.58,2-.88,2-.52,0-1.18-1.48-1.18-2.23,0-.33.13-.4.46-.4" transform="translate(-1 -1)"/><polygon points="0 0 0 8 1 8 1 1 13 1 13 13 6 13 6 14 14 14 14 0 0 0"/></svg>