<svg id="minor_upgrades" data-name="minor upgrades" xmlns="http://www.w3.org/2000/svg" viewBox="0 0 15.02 14"><path d="M11,10.15l-.39-.64a3,3,0,0,1,4.18.79A3.09,3.09,0,0,1,15.27,12h.62a.14.14,0,0,1,.11.22L15,14a.13.13,0,0,1-.18.05L14.79,14l-1-1.82a.14.14,0,0,1,.11-.22h.63a2.25,2.25,0,0,0-2.25-2.25A2.23,2.23,0,0,0,11,10.15Zm1.31,4.1a2.2,2.2,0,0,0,1.28-.42l.39.65a3,3,0,0,1-4.18-.8A3,3,0,0,1,9.24,12H8.63a.13.13,0,0,1-.11-.21l1-1.83a.13.13,0,0,1,.18,0,.1.1,0,0,1,.05,0l1,1.83a.13.13,0,0,1-.11.21H10a2.27,2.27,0,0,0,2.27,2.26Z" transform="translate(-1 -1)"/><rect x="2" y="2" width="9" height="3"/><rect x="6" y="6" width="5" height="1"/><rect x="6" y="7" width="2" height="1"/><rect x="2.01" y="6" width="2.99" height="5"/><path d="M13.54,1H1.46A.44.44,0,0,0,1,1.46V13.54a.44.44,0,0,0,.46.46H8V13H2V2H13V8h1V1.46A.44.44,0,0,0,13.54,1Z" transform="translate(-1 -1)"/><rect x="6" y="7" width="1.09" height="1"/><rect x="6" y="8" width="1" height="1"/><rect x="6" y="9" width="1" height="2"/></svg>