<svg id="references" xmlns="http://www.w3.org/2000/svg" viewBox="0 0 13 14"><path d="M10,14H3V2h7V4.5a.5.5,0,0,0,.5.5H13V8l1,1V3.91a1,1,0,0,0-.29-.7L11.79,1.29a1,1,0,0,0-.7-.29H2.5a.5.5,0,0,0-.5.5v13a.5.5,0,0,0,.5.5H11ZM11,2l2,2H11Z" transform="translate(-2 -1)"/><path d="M9,11.17l2.22,1.91a.14.14,0,0,0,.2-.1v-.93h.26A3.59,3.59,0,0,1,15,15V14c0-2.17-1.47-3.94-3.28-3.94h-.26V9.15c0-.15-.15-.2-.2-.1L9,11A.15.15,0,0,0,9,11.17Z" transform="translate(-2 -1)"/><path d="M5.2,8h5.6c.1,0,.2-.1.2-.3V7.2c0-.1-.1-.2-.3-.2H5.2a.22.22,0,0,0-.2.2v.6A.22.22,0,0,0,5.2,8Z" transform="translate(-2 -1)"/><path d="M8,11H5.2c-.1,0-.2.1-.2.3v.5a.22.22,0,0,0,.2.2H8Z" transform="translate(-2 -1)"/><path d="M9,9H5.2a.22.22,0,0,0-.2.2v.6a.22.22,0,0,0,.2.2H9Z" transform="translate(-2 -1)"/></svg>