<svg id="Ebene_65" data-name="Ebene 65" xmlns="http://www.w3.org/2000/svg" viewBox="0 0 13.83 14"><path d="M14.41,9.39l-.86-.5A6.54,6.54,0,0,0,13.62,8a6.42,6.42,0,0,0-.07-.89l.86-.5a1,1,0,0,0,.37-1.37l-1-1.73a1,1,0,0,0-1.37-.37l-.86.5A5.44,5.44,0,0,0,10,2.75V2A1,1,0,0,0,9,1H7A1,1,0,0,0,6,2v.75a5.44,5.44,0,0,0-1.55.89l-.86-.5a1,1,0,0,0-1.37.37l-1,1.73a1,1,0,0,0,.37,1.37l.86.5A6.54,6.54,0,0,0,2.37,8a6.4,6.4,0,0,0,.08.89l-.86.5a1,1,0,0,0-.37,1.37l1,1.73a1,1,0,0,0,1.37.37l.86-.5A5.3,5.3,0,0,0,6,13.25V14a1,1,0,0,0,1,1H9a1,1,0,0,0,1-1v-.75a5.44,5.44,0,0,0,1.55-.89l.86.5a1,1,0,0,0,1.37-.37l1-1.73A1,1,0,0,0,14.41,9.39ZM12.91,12l-1.51-.87A4.65,4.65,0,0,1,9,12.51V14H7V12.51a4.65,4.65,0,0,1-2.4-1.39L3.09,12l-1-1.73,1.52-.88A4.54,4.54,0,0,1,3.38,8a4.54,4.54,0,0,1,.23-1.38L2.09,5.74,3.09,4l1.51.87A4.65,4.65,0,0,1,7,3.49V2H9V3.49a4.65,4.65,0,0,1,2.4,1.39L12.91,4l1,1.73-1.52.88A4.54,4.54,0,0,1,12.62,8a4.54,4.54,0,0,1-.23,1.38l1.52.88Z" transform="translate(-1.09 -1)"/><path d="M8,5.88A2.13,2.13,0,1,1,5.88,8,2.12,2.12,0,0,1,8,5.88m0-1A3.13,3.13,0,1,0,11.12,8,3.11,3.11,0,0,0,8,4.88Z" transform="translate(-1.09 -1)"/></svg>