<svg id="site_handling" data-name="site handling" xmlns="http://www.w3.org/2000/svg" viewBox="0 0 16 14"><path d="M3,13v1H8V11H1V3H13V9h1V2.5a.47.47,0,0,0-.5-.5H.5a.47.47,0,0,0-.5.5v9a.47.47,0,0,0,.5.5H5v1Z" transform="translate(0 -2)"/><path d="M15.29,11.36,9.38,8.83a.63.63,0,0,0-.55.55l2.53,5.91c.1.22.17.51.5.24l0-2.21L14.59,16l.7-.71.71-.7L13.32,11.9l2.21,0C15.8,11.53,15.51,11.46,15.29,11.36Z" transform="translate(0 -2)"/><path d="M8,7.75a.5.5,0,0,1-.17,0C7.34,7.77,6.59,6,6.59,5.39c0-.22,0-.29.12-.35a3,3,0,0,0-1.63.59A.63.63,0,0,0,5,6c0,.92,1,3,1.7,3C7,9,7.57,8.47,8,7.75" transform="translate(0 -2)"/><path d="M7.7,5c.65,0,1.3.1,1.3.47,0,.74-.47,1.64-.71,1.64-.43,0-1-1.19-1-1.79,0-.27.11-.32.38-.32" transform="translate(0 -2)"/></svg>