<svg id="system_extensions" data-name="system extensions" xmlns="http://www.w3.org/2000/svg" viewBox="0 0 12 14"><path d="M9,11A.86.86,0,0,1,8.73,11L6.39,10A.61.61,0,0,1,6,9.42V6.59A.61.61,0,0,1,6.39,6l2.34-1A.86.86,0,0,1,9,5a.76.76,0,0,1,.27,0l2.34,1a.61.61,0,0,1,.39.56V9.41a.59.59,0,0,1-.39.56L9.27,11A.86.86,0,0,1,9,11ZM8.5,9.85V8L7,7.28V9.15Zm.95,0L11,9.15V7.28L9.45,8ZM9,7.15l1.53-.66L9,5.85l-1.53.64Z" transform="translate(-2 -1)"/><path d="M13.5,1H2.5a.5.5,0,0,0-.5.5v13a.5.5,0,0,0,.5.5h11a.5.5,0,0,0,.5-.5V1.5a.5.5,0,0,0-.5-.5ZM4,14H3V2H4Zm9,0H5V2h8Z" transform="translate(-2 -1)"/></svg>