<svg id="third_party_ext" data-name="third party ext" xmlns="http://www.w3.org/2000/svg" viewBox="0 0 14 13.95"><path d="M14.44,13.5a14.29,14.29,0,0,1-1.5-.59,3.24,3.24,0,0,1-.17-.94,1.69,1.69,0,0,0,.52-1.07v-.82A1.08,1.08,0,0,0,12.17,9h-.29a1.11,1.11,0,0,0-1.12,1.08v.82A1.71,1.71,0,0,0,11.28,12a2.36,2.36,0,0,1-.16.92,14.37,14.37,0,0,1-1.51.6s-.52.3-.56,1.45H15C15,13.76,14.44,13.5,14.44,13.5Z" transform="translate(-1 -1)"/><path d="M7.5,6l3.33-1.19a.5.5,0,0,1,.66.27.51.51,0,0,1-.27.65l-.05,0L8,6.85v3.71a.5.5,0,1,1-1,0V6.85L3.83,5.72a.5.5,0,1,1,.34-.94L7.5,6ZM8,13.91H8a1.3,1.3,0,0,1-.93,0L1.47,11.6A.78.78,0,0,1,1,10.91V4.1a.81.81,0,0,1,.47-.69L7,1.09a1.35,1.35,0,0,1,.93,0l5.56,2.32A.8.8,0,0,1,14,4.1V8H13V4.25L7.5,2,2,4.25v6.51L7.5,13l.5-.2v1.11Z" transform="translate(-1 -1)"/></svg>