<svg id="TS_config_reference" data-name="TS config reference" xmlns="http://www.w3.org/2000/svg" viewBox="0 0 14 12"><path d="M14.5,2H1.5a.47.47,0,0,0-.5.5v9a.47.47,0,0,0,.5.5H6v1H4v1h8V13H10V12h4.5a.47.47,0,0,0,.5-.5v-9A.47.47,0,0,0,14.5,2ZM14,11H2V3H14Z" transform="translate(-1 -2)"/><path d="M9.51,8.12a.75.75,0,0,1-.26,0c-.76,0-1.89-2.68-1.89-3.57,0-.33.08-.44.19-.53A4.44,4.44,0,0,0,5.12,5a.94.94,0,0,0-.12.5C5,6.84,6.49,10,7.53,10c.49,0,1.31-.8,2-1.88" transform="translate(-1 -2)"/><path d="M9,4c1,0,1.94.16,1.94.7,0,1.11-.71,2.46-1.07,2.46-.64,0-1.43-1.78-1.43-2.68,0-.4.15-.48.56-.48" transform="translate(-1 -2)"/></svg>