<svg id="upgrading_extensions" data-name="upgrading extensions" xmlns="http://www.w3.org/2000/svg" viewBox="0 0 15.02 14"><path d="M7.5,6l3.33-1.19a.5.5,0,0,1,.66.27.51.51,0,0,1-.27.65l-.05,0L8,6.85v3.71a.5.5,0,1,1-1,0V6.85L3.83,5.72a.5.5,0,1,1,.34-.94L7.5,6ZM8,13.91H8a1.3,1.3,0,0,1-.93,0L1.47,11.6A.78.78,0,0,1,1,10.91V4.1a.81.81,0,0,1,.47-.69L7,1.09a1.35,1.35,0,0,1,.93,0l5.56,2.32A.8.8,0,0,1,14,4.1V8H13V4.25L7.5,2,2,4.25v6.51L7.5,13l.5-.2v1.11Zm3-3.76-.39-.64a3,3,0,0,1,4.18.79A3.09,3.09,0,0,1,15.27,12h.62a.14.14,0,0,1,.11.22L15,14a.13.13,0,0,1-.18.05L14.79,14l-1-1.82a.14.14,0,0,1,.11-.22h.63a2.25,2.25,0,0,0-2.25-2.25A2.23,2.23,0,0,0,11,10.15Zm1.31,4.1a2.2,2.2,0,0,0,1.28-.42l.39.65a3,3,0,0,1-4.18-.8A3,3,0,0,1,9.24,12H8.63a.13.13,0,0,1-.11-.21l1-1.83a.13.13,0,0,1,.18,0,.1.1,0,0,1,.05,0l1,1.83a.13.13,0,0,1-.11.21H10a2.27,2.27,0,0,0,2.27,2.26Z" transform="translate(-1 -1)"/></svg>