<svg id="changelog" xmlns="http://www.w3.org/2000/svg" viewBox="0 0 10 14"><path d="M9.54,10.12a.75.75,0,0,1-.26,0c-.77,0-1.9-2.68-1.9-3.57,0-.33.08-.44.19-.53A4.42,4.42,0,0,0,5.13,7a.85.85,0,0,0-.13.5C5,8.84,6.5,12,7.55,12c.49,0,1.31-.8,2-1.88" transform="translate(-3 -1)"/><path d="M9.05,6c1,0,1.95.16,1.95.7,0,1.11-.71,2.46-1.07,2.46-.65,0-1.45-1.78-1.45-2.68,0-.4.16-.48.57-.48" transform="translate(-3 -1)"/><path d="M12.5,2H9.4A1.41,1.41,0,0,0,8,1,1.41,1.41,0,0,0,6.6,2H3.5a.47.47,0,0,0-.5.5v12a.47.47,0,0,0,.5.5h9a.47.47,0,0,0,.5-.5V2.5A.47.47,0,0,0,12.5,2ZM8,1.8a.79.79,0,0,1,.8.8.71.71,0,0,1-.8.7.77.77,0,0,1-.7-.8A.68.68,0,0,1,8,1.8ZM12,14H4V3H5v.5a.47.47,0,0,0,.5.5h5a.47.47,0,0,0,.5-.5V3h1Z" transform="translate(-3 -1)"/></svg>