<svg id="concept" xmlns="http://www.w3.org/2000/svg" viewBox="0 0 15 14"><path d="M8,1A4.49,4.49,0,0,0,3.5,5.5C3.5,7.26,5,9,5,11v2l.86,1.72a.51.51,0,0,0,.45.28H9.69a.51.51,0,0,0,.45-.28L11,13V11c0-2,1.5-3.74,1.5-5.5A4.49,4.49,0,0,0,8,1ZM4.5,5.5a3.5,3.5,0,0,1,7,0,6.27,6.27,0,0,1-.64,2.19A11.18,11.18,0,0,0,10.1,10H5.9a11.18,11.18,0,0,0-.76-2.31A6.27,6.27,0,0,1,4.5,5.5ZM9.38,14H6.62l-.5-1H9.88ZM10,12H6V11h4Z" transform="translate(-0.5 -1)"/><path d="M8,3A2.5,2.5,0,0,0,5.5,5.5h1A1.5,1.5,0,0,1,8,4Zm5,.2,1.75-1a.5.5,0,0,0-.5-.86l-1.75,1A5.32,5.32,0,0,1,13,3.2Zm-11.74-1L3,3.2a5.32,5.32,0,0,1,.5-.87l-1.76-1a.49.49,0,0,0-.68.18A.51.51,0,0,0,1.25,2.18ZM15,5H13.48c0,.16,0,.33,0,.5a4.21,4.21,0,0,1,0,.5H15a.5.5,0,0,0,0-1Zm-.26,3.82L13,7.8l-.27.66-.11.27,1.65.95a.49.49,0,0,0,.68-.18A.51.51,0,0,0,14.74,8.82ZM2.5,5.5a4.07,4.07,0,0,1,0-.5H1A.5.5,0,0,0,1,6H2.54C2.53,5.83,2.5,5.67,2.5,5.5Zm.79,3L3,7.8l-1.77,1a.5.5,0,0,0-.17.68.48.48,0,0,0,.67.18L3.4,8.73Z" transform="translate(-0.5 -1)"/></svg>