<svg id="config_overview" data-name="config overview" xmlns="http://www.w3.org/2000/svg" viewBox="0 0 14 14"><path d="M8.9,4.4,7.68,4.05c0-.09-.07-.19-.11-.28l.61-1.1a.15.15,0,0,0,0-.17L7.5,1.84a.15.15,0,0,0-.17,0l-1.1.61L6,2.32,5.6,1.1A.14.14,0,0,0,5.46,1H4.54a.14.14,0,0,0-.14.1L4.05,2.32l-.28.11-1.1-.61a.15.15,0,0,0-.17,0l-.66.66a.15.15,0,0,0,0,.17l.61,1.1c0,.09-.08.19-.11.28L1.1,4.4a.14.14,0,0,0-.1.14v.92a.14.14,0,0,0,.1.14L2.32,6c0,.09.07.19.11.28l-.61,1.1a.15.15,0,0,0,0,.17l.66.66a.15.15,0,0,0,.17,0l1.1-.61.28.11L4.4,8.9a.14.14,0,0,0,.14.1h.92a.14.14,0,0,0,.14-.1L6,7.68l.28-.11,1.1.61a.15.15,0,0,0,.17,0l.66-.66a.15.15,0,0,0,0-.17l-.61-1.1c0-.09.08-.19.11-.28L8.9,5.6A.14.14,0,0,0,9,5.46V4.54A.14.14,0,0,0,8.9,4.4ZM5,6.71A1.71,1.71,0,1,1,6.71,5,1.7,1.7,0,0,1,5,6.71Z" transform="translate(-1 -1)"/><path d="M14.59,10.82l-.53-.15a3.05,3.05,0,0,0-.08-.5,2.64,2.64,0,0,0-.17-.47l.39-.4a.6.6,0,0,0,0-.81l-.78-.8a.53.53,0,0,0-.77,0l-.39.4a2.86,2.86,0,0,0-.95-.26l-.1-.41a.55.55,0,0,0-.67-.4l-1.06.29a.57.57,0,0,0-.39.7l.11.41a3.14,3.14,0,0,0-.7.71L8,9a.55.55,0,0,0-.67.4L7,10.48a.57.57,0,0,0,.39.7l.53.15a3.05,3.05,0,0,0,.08.5,2.64,2.64,0,0,0,.17.47l-.39.4a.6.6,0,0,0,0,.81l.78.8a.53.53,0,0,0,.77,0l.39-.4a3.12,3.12,0,0,0,.95.26l.1.41a.55.55,0,0,0,.67.4l1.06-.29a.57.57,0,0,0,.39-.7l-.11-.41a3.14,3.14,0,0,0,.7-.71L14,13a.55.55,0,0,0,.67-.4L15,11.52A.57.57,0,0,0,14.59,10.82ZM11,12.5A1.5,1.5,0,1,1,12.5,11,1.5,1.5,0,0,1,11,12.5Z" transform="translate(-1 -1)"/></svg>