<svg id="creating_content" data-name="creating content" xmlns="http://www.w3.org/2000/svg" viewBox="0 0 15 14"><circle cx="7" cy="3" r="1"/><path d="M7,9H2V2h8V5h1V1.36A.36.36,0,0,0,10.64,1H1.36A.36.36,0,0,0,1,1.36V9.64a.36.36,0,0,0,.36.36H7Z" transform="translate(-1 -1)"/><polygon points="6 4.87 4.4 7 6 7 6 4.87"/><polygon points="6 6.66 4.1 3.4 2 7 6 7 6 6.66"/><path d="M15.8,7.44,14.53,6.2a.6.6,0,0,0-.46-.2H8.33A.31.31,0,0,0,8,6.33v8.34a.31.31,0,0,0,.33.33h7.34a.31.31,0,0,0,.33-.33V7.9A.63.63,0,0,0,15.8,7.44ZM15,14H9V7h4V8.67a.31.31,0,0,0,.33.33H15ZM14,8V7l1,1Z" transform="translate(-1 -1)"/><rect x="9" y="9" width="4" height="1" rx="0.25"/><rect x="9" y="11" width="4" height="1" rx="0.25"/></svg>