<svg id="developing_extensions" data-name="developing extensions" xmlns="http://www.w3.org/2000/svg" viewBox="0 0 14 14"><path d="M7.5,6l3.33-1.19a.5.5,0,0,1,.66.27.51.51,0,0,1-.27.65l-.05,0L8,6.85v3.71a.5.5,0,1,1-1,0V6.85L3.83,5.72a.5.5,0,1,1,.34-.94L7.5,6ZM8,13.91H8a1.3,1.3,0,0,1-.93,0L1.47,11.6A.78.78,0,0,1,1,10.91V4.1a.81.81,0,0,1,.47-.69L7,1.09a1.35,1.35,0,0,1,.93,0l5.56,2.32A.8.8,0,0,1,14,4.1V8H13V4.25L7.5,2,2,4.25v6.51L7.5,13l.5-.2v1.11ZM13,13v1.5a.5.5,0,0,1-.5.5h-1a.5.5,0,0,1-.5-.5V13H9.5a.5.5,0,0,1-.5-.5v-1a.5.5,0,0,1,.5-.5H11V9.5a.5.5,0,0,1,.5-.5h1a.5.5,0,0,1,.5.5V11h1.5a.5.5,0,0,1,.5.5v1a.5.5,0,0,1-.5.5Z" transform="translate(-1 -1)"/></svg>