<svg id="fluid_template" data-name="fluid template" xmlns="http://www.w3.org/2000/svg" viewBox="0 0 14 14"><path d="M14,2V14H2V2H14M1.5,1a.47.47,0,0,0-.5.5v13a.47.47,0,0,0,.5.5h13a.47.47,0,0,0,.5-.5V1.5a.47.47,0,0,0-.5-.5Z" transform="translate(-1 -1)"/><path d="M4,7H3v6H6V11.19A8.94,8.94,0,0,1,4,7Z" transform="translate(-1 -1)"/><path d="M8,9.49A6.07,6.07,0,0,1,7,7.8V9.2a3.12,3.12,0,0,0,.56.74A4.32,4.32,0,0,0,8,9.49Z" transform="translate(-1 -1)"/><path d="M11.31,8.12h0l-.93,1.53C10,10.36,8.78,12,7.55,12A1.74,1.74,0,0,1,7,11.89V13h6V7H11.78A4.82,4.82,0,0,1,11.31,8.12Z" transform="translate(-1 -1)"/><path d="M3,3V6h1a1.7,1.7,0,0,1,.25-.65c.82-1,3-1.31,3.36-1.35H8.85l.2,0c2.45,0,3,.93,3,1.71,0,.09,0,.2,0,.31h1V3Z" transform="translate(-1 -1)"/><path d="M9.54,9.12a1.07,1.07,0,0,1-.25,0c-.78,0-1.91-2.68-1.91-3.58,0-.33.07-.44.19-.53a4.45,4.45,0,0,0-2.45.89A.89.89,0,0,0,5,6.44C5,7.83,6.49,11,7.55,11c.49,0,1.32-.8,2-1.88" transform="translate(-1 -1)"/><path d="M9.05,5c1,0,2,.16,2,.71,0,1.11-.71,2.46-1.08,2.46-.64,0-1.45-1.79-1.45-2.68,0-.41.16-.49.57-.49" transform="translate(-1 -1)"/></svg>