<svg id="Fluid_view_helper" data-name="Fluid view helper" xmlns="http://www.w3.org/2000/svg" viewBox="0 0 13.98 14"><rect x="2" y="2" width="9" height="3"/><rect x="6" y="6" width="5" height="1"/><rect x="6" y="7" width="2" height="1"/><rect x="2.01" y="6" width="2.99" height="5"/><path d="M13.54,1H1.46A.44.44,0,0,0,1,1.46V13.54a.44.44,0,0,0,.46.46H8V13H2V2H13V8h1V1.46A.44.44,0,0,0,13.54,1Z" transform="translate(-1 -1)"/><rect x="6" y="7" width="1.09" height="1"/><rect x="6" y="8" width="1" height="1"/><rect x="6" y="9" width="1" height="2"/><path d="M13.53,13.12a.75.75,0,0,1-.26,0c-.76,0-1.89-2.68-1.89-3.57,0-.33.08-.44.19-.53A4.38,4.38,0,0,0,9.15,10a.85.85,0,0,0-.13.5C9,11.84,10.51,15,11.55,15c.49,0,1.31-.8,2-1.88" transform="translate(-1 -1)"/><path d="M13,9c1,0,1.94.16,1.94.7,0,1.11-.71,2.46-1.06,2.46-.65,0-1.44-1.78-1.44-2.68,0-.4.15-.48.56-.48" transform="translate(-1 -1)"/></svg>