<svg id="start" xmlns="http://www.w3.org/2000/svg" viewBox="0 0 15.32 15.32"><path d="M15,1C13.3-.7,6,5,6,5H2L0,7,2,9l1,1L1,12l3,3,2-2,1,1,2,2,2-2V10S16.7,2.7,15,1ZM2.7,8.3,1.4,7l1-1H5ZM10,13.6l-1,1L7.7,13.3,10,11Zm.3-4.3L7,12.6l-.3-.3L6,11.6l-.7.7L4,13.6,2.4,12l1.3-1.3.7-.7-.7-.7L3.4,9,6.7,5.7c2-1.6,5.8-4.1,7.4-4.1h.2C14.7,2.3,13.1,5.8,10.3,9.3Z" transform="translate(0 -0.68)"/><path d="M11,4a.94.94,0,0,0-1,1,.94.94,0,0,0,1,1,.94.94,0,0,0,1-1A.94.94,0,0,0,11,4ZM1,15H0v1H1Zm1-1H1v1H2ZM1,13H0v1H1Zm2,2H2v1H3Z" transform="translate(0 -0.68)"/></svg>