<svg id="translations" xmlns="http://www.w3.org/2000/svg" viewBox="0 0 14 13"><path d="M5,9H3.7l-.26.17L2,10.13V3H9V4h1V2.25A.25.25,0,0,0,9.75,2H1.25A.25.25,0,0,0,1,2.25V12l3-2H5Z" transform="translate(-1 -2)"/><path d="M14,6v7.13l-1.44-1L12.3,12H7V6h7m.75-1H6.25A.25.25,0,0,0,6,5.25v7.5a.25.25,0,0,0,.25.25H12l3,2V5.25A.25.25,0,0,0,14.75,5Z" transform="translate(-1 -2)"/><path d="M4.34,5.49A3.46,3.46,0,0,0,5,6.79V5.88q-.09-.21-.15-.39Z" transform="translate(-1 -2)"/><polygon points="3.77 2.99 4 2.99 4 2.49 2 2.49 2 2.99 3.5 2.99 3.77 2.99"/><path d="M5,7a3.72,3.72,0,0,1-2,.49V8a4.44,4.44,0,0,0,2-.42Z" transform="translate(-1 -2)"/><polygon points="9 5 10 5 12 9 11 9 9 5"/><polygon points="10 5 9 5 7 9 8 9 10 5"/><rect x="8.26" y="7" width="2.42" height="1"/></svg>