<svg id="major_upgrades" data-name="major upgrades" xmlns="http://www.w3.org/2000/svg" viewBox="0 0 15.6 12"><path d="M9,8.75a.5.5,0,0,1-.17,0C8.34,8.77,7.59,7,7.59,6.39c0-.22,0-.29.12-.35a3,3,0,0,0-1.63.59A.63.63,0,0,0,6,7c0,.92,1,3,1.7,3C8,10,8.57,9.47,9,8.75" transform="translate(-0.2 -2)"/><path d="M8.7,6c.65,0,1.3.1,1.3.47,0,.74-.47,1.64-.71,1.64-.43,0-1-1.19-1-1.79,0-.27.11-.32.38-.32" transform="translate(-0.2 -2)"/><path d="M15.55,8H14A6,6,0,0,0,4.94,2.84l.61,1A4.84,4.84,0,0,1,12.87,8H11.45a.25.25,0,0,0-.25.25.2.2,0,0,0,0,.13l2,3.28a.25.25,0,0,0,.34.08l.08-.08,2-3.28A.25.25,0,0,0,15.68,8,.2.2,0,0,0,15.55,8Zm-5.18,4.23A4.75,4.75,0,0,1,8,12.87,4.88,4.88,0,0,1,3.13,8H4.55a.25.25,0,0,0,.25-.25.2.2,0,0,0,0-.13l-2-3.28a.25.25,0,0,0-.34-.08.3.3,0,0,0-.08.08l-2,3.28A.25.25,0,0,0,.32,8,.2.2,0,0,0,.45,8H2a6,6,0,0,0,6,6,5.9,5.9,0,0,0,3-.8Z" transform="translate(-0.2 -2)"/></svg>