<svg id="pages" xmlns="http://www.w3.org/2000/svg" viewBox="0 0 14 12"><path d="M9,9.75a.5.5,0,0,1-.17,0C8.34,9.77,7.59,8,7.59,7.39c0-.22,0-.29.12-.35a3,3,0,0,0-1.63.59A.63.63,0,0,0,6,8c0,.92,1,3,1.7,3C8,11,8.57,10.47,9,9.75" transform="translate(-1 -2)"/><path d="M8.7,7c.65,0,1.3.1,1.3.47,0,.74-.47,1.64-.71,1.64-.43,0-1-1.19-1-1.79,0-.27.11-.32.38-.32" transform="translate(-1 -2)"/><path d="M14,2H2A1,1,0,0,0,1,3V13a1,1,0,0,0,1,1H14a1,1,0,0,0,1-1V3A1,1,0,0,0,14,2Zm0,2H4V3H14ZM3,3V4H2V3ZM2,13V5H14v8Z" transform="translate(-1 -2)"/></svg>