<svg id="sitepackages" xmlns="http://www.w3.org/2000/svg" viewBox="0 0 13.94 14"><path d="M14.23,6H5.71A.73.73,0,0,0,5,6.75v7.5a.73.73,0,0,0,.55.72v0h8.68a.73.73,0,0,0,.71-.75V6.75A.73.73,0,0,0,14.23,6ZM6,7H7V8H6Zm0,7V9h8v5ZM8,8V7h6V8Z" transform="translate(-1 -1)"/><rect x="6" y="9" width="0.98" height="3"/><rect x="8" y="9" width="4" height="3"/><rect x="2" y="4" width="0.98" height="3"/><path d="M2,4h8V5h.94V1.75A.73.73,0,0,0,10.23,1H1.71A.73.73,0,0,0,1,1.75v7.5a.73.73,0,0,0,.55.72v0H4V9H2ZM4,2h6V3H4ZM2,2H3V3H2Z" transform="translate(-1 -1)"/></svg>