<svg id="third_party_tools" data-name="third party tools" xmlns="http://www.w3.org/2000/svg" viewBox="0 0 14 12"><path d="M14.5,2H1.5a.47.47,0,0,0-.5.5v9a.47.47,0,0,0,.5.5H6v1H4v1h8V13H10V12h4.5a.47.47,0,0,0,.5-.5v-9A.47.47,0,0,0,14.5,2ZM14,11H2V3H14Z" transform="translate(-1 -2)"/><rect x="7.31" y="5.61" width="1.39" height="2.78" transform="translate(6.29 -5.61) rotate(45)"/><path d="M5.05,9l.85-.86,1,1L6,10A1.37,1.37,0,0,0,7.37,9.6a1.39,1.39,0,0,0-2-2A1.37,1.37,0,0,0,5.05,9Z" transform="translate(-1 -2)"/><path d="M11,5l-.85.86-1-1L10,4.05a1.37,1.37,0,0,0-1.34.35,1.39,1.39,0,0,0,2,2A1.37,1.37,0,0,0,11,5Z" transform="translate(-1 -2)"/></svg>