<svg id="TYPO3_explained" data-name="TYPO3 explained" xmlns="http://www.w3.org/2000/svg" viewBox="0 0 14 13"><path d="M9.54,8.12a.75.75,0,0,1-.26,0c-.77,0-1.9-2.68-1.9-3.57,0-.33.08-.44.19-.53A4.42,4.42,0,0,0,5.13,5a.85.85,0,0,0-.13.5C5,6.84,6.5,10,7.55,10c.49,0,1.31-.8,2-1.88" transform="translate(-1 -2)"/><path d="M9.05,4c1,0,1.95.16,1.95.7,0,1.11-.71,2.46-1.07,2.46-.65,0-1.45-1.78-1.45-2.68,0-.4.16-.48.57-.48" transform="translate(-1 -2)"/><path d="M14,3v8H8.72l-.24.14L5,13.23V11H2V3H14M1.6,2a.6.6,0,0,0-.6.6v8.9a.5.5,0,0,0,.5.5H4v3l5-3h5.5a.5.5,0,0,0,.5-.5v-9a.5.5,0,0,0-.5-.5Z" transform="translate(-1 -2)"/></svg>