<svg id="TYPOscript_reference" data-name="TYPOscript reference" xmlns="http://www.w3.org/2000/svg" viewBox="0 0 12 14"><path d="M13.5,1H2.5a.5.5,0,0,0-.5.5v13a.5.5,0,0,0,.5.5h11a.5.5,0,0,0,.5-.5V1.5a.5.5,0,0,0-.5-.5ZM4,14H3V2H4Zm9,0H5V2h8Z" transform="translate(-2 -1)"/><path d="M10.54,9.19a.75.75,0,0,1-.26,0c-.77,0-1.9-2.7-1.9-3.6,0-.33.08-.44.19-.53A4.42,4.42,0,0,0,6.13,6,.91.91,0,0,0,6,6.5c0,1.4,1.5,4.58,2.55,4.58.49,0,1.31-.8,2-1.89M10.05,5c1,0,1.95.16,1.95.71,0,1.12-.71,2.47-1.07,2.47-.65,0-1.45-1.79-1.45-2.69,0-.41.16-.49.57-.49" transform="translate(-2 -1)"/></svg>