<svg id="TYPO3_explained" data-name="TYPO3 explained" xmlns="http://www.w3.org/2000/svg" viewBox="0 0 12 14"><path d="M7,10H6.46A.47.47,0,0,1,6,9.54v-5A.51.51,0,0,1,6.51,4h5a.47.47,0,0,1,.46.46V9.54a.47.47,0,0,1-.46.46h-2L7,11.48ZM8,9v.77L9.24,9H11V5H7V9Z" transform="translate(-2 -1)"/><path d="M13.5,1H2.5a.5.5,0,0,0-.5.5v13a.5.5,0,0,0,.5.5h11a.5.5,0,0,0,.5-.5V1.5a.5.5,0,0,0-.5-.5ZM4,14H3V2H4Zm9,0H5V2h8Z" transform="translate(-2 -1)"/><path d="M9.51,7.37l-.08,0c-.26,0-.64-.9-.64-1.19,0-.11,0-.15.07-.18a1.49,1.49,0,0,0-.82.3.31.31,0,0,0,0,.16C8,7,8.5,8,8.85,8c.16,0,.44-.27.66-.63" transform="translate(-2 -1)"/><path d="M9.35,6c.32,0,.65,0,.65.23,0,.37-.24.82-.36.82s-.48-.59-.48-.89c0-.13.05-.16.19-.16" transform="translate(-2 -1)"/></svg>